<svg xmlns="http://www.w3.org/2000/svg" xmlns:xlink="http://www.w3.org/1999/xlink" width="100" zoomAndPan="magnify" viewBox="0 0 75 74.999997" height="100" preserveAspectRatio="xMidYMid meet" version="1.0"><defs><g/><linearGradient x1="0" gradientTransform="matrix(0.75, 0, 0, 0.75, 0.0000015, -0.000001)" y1="50" x2="99.999996" gradientUnits="userSpaceOnUse" y2="50" id="0385e44260"><stop stop-opacity="1" stop-color="rgb(0%, 0%, 0%)" offset="0"/><stop stop-opacity="1" stop-color="rgb(0.175476%, 0.175476%, 0.175476%)" offset="0.0078125"/><stop stop-opacity="1" stop-color="rgb(0.526428%, 0.526428%, 0.526428%)" offset="0.015625"/><stop stop-opacity="1" stop-color="rgb(0.878906%, 0.878906%, 0.878906%)" offset="0.0234375"/><stop stop-opacity="1" stop-color="rgb(1.231384%, 1.231384%, 1.231384%)" offset="0.03125"/><stop stop-opacity="1" stop-color="rgb(1.583862%, 1.583862%, 1.583862%)" offset="0.0390625"/><stop stop-opacity="1" stop-color="rgb(1.93634%, 1.93634%, 1.93634%)" offset="0.046875"/><stop stop-opacity="1" stop-color="rgb(2.288818%, 2.288818%, 2.288818%)" offset="0.0546875"/><stop stop-opacity="1" stop-color="rgb(2.641296%, 2.641296%, 2.641296%)" offset="0.0625"/><stop stop-opacity="1" stop-color="rgb(2.993774%, 2.993774%, 2.993774%)" offset="0.0703125"/><stop stop-opacity="1" stop-color="rgb(3.346252%, 3.346252%, 3.346252%)" offset="0.078125"/><stop stop-opacity="1" stop-color="rgb(3.69873%, 3.69873%, 3.69873%)" offset="0.0859375"/><stop stop-opacity="1" stop-color="rgb(4.051208%, 4.051208%, 4.051208%)" offset="0.09375"/><stop stop-opacity="1" stop-color="rgb(4.402161%, 4.402161%, 4.402161%)" offset="0.101562"/><stop stop-opacity="1" stop-color="rgb(4.754639%, 4.754639%, 4.754639%)" offset="0.109375"/><stop stop-opacity="1" stop-color="rgb(5.107117%, 5.107117%, 5.107117%)" offset="0.117188"/><stop stop-opacity="1" stop-color="rgb(5.459595%, 5.459595%, 5.459595%)" offset="0.125"/><stop stop-opacity="1" stop-color="rgb(5.812073%, 5.812073%, 5.812073%)" offset="0.132812"/><stop stop-opacity="1" stop-color="rgb(6.164551%, 6.164551%, 6.164551%)" offset="0.140625"/><stop stop-opacity="1" stop-color="rgb(6.517029%, 6.517029%, 6.517029%)" offset="0.148438"/><stop stop-opacity="1" stop-color="rgb(6.869507%, 6.869507%, 6.869507%)" offset="0.15625"/><stop stop-opacity="1" stop-color="rgb(7.221985%, 7.221985%, 7.221985%)" offset="0.164062"/><stop stop-opacity="1" stop-color="rgb(7.574463%, 7.574463%, 7.574463%)" offset="0.171875"/><stop stop-opacity="1" stop-color="rgb(7.926941%, 7.926941%, 7.926941%)" offset="0.179688"/><stop stop-opacity="1" stop-color="rgb(8.277893%, 8.277893%, 8.277893%)" offset="0.1875"/><stop stop-opacity="1" stop-color="rgb(8.630371%, 8.630371%, 8.630371%)" offset="0.195312"/><stop stop-opacity="1" stop-color="rgb(8.982849%, 8.982849%, 8.982849%)" offset="0.203125"/><stop stop-opacity="1" stop-color="rgb(9.335327%, 9.335327%, 9.335327%)" offset="0.210938"/><stop stop-opacity="1" stop-color="rgb(9.687805%, 9.687805%, 9.687805%)" offset="0.21875"/><stop stop-opacity="1" stop-color="rgb(10.040283%, 10.040283%, 10.040283%)" offset="0.226562"/><stop stop-opacity="1" stop-color="rgb(10.392761%, 10.392761%, 10.392761%)" offset="0.234375"/><stop stop-opacity="1" stop-color="rgb(10.745239%, 10.745239%, 10.745239%)" offset="0.242188"/><stop stop-opacity="1" stop-color="rgb(11.097717%, 11.097717%, 11.097717%)" offset="0.25"/><stop stop-opacity="1" stop-color="rgb(11.450195%, 11.450195%, 11.450195%)" offset="0.257812"/><stop stop-opacity="1" stop-color="rgb(11.802673%, 11.802673%, 11.802673%)" offset="0.265625"/><stop stop-opacity="1" stop-color="rgb(12.155151%, 12.155151%, 12.155151%)" offset="0.273438"/><stop stop-opacity="1" stop-color="rgb(12.506104%, 12.506104%, 12.506104%)" offset="0.28125"/><stop stop-opacity="1" stop-color="rgb(12.858582%, 12.858582%, 12.858582%)" offset="0.289062"/><stop stop-opacity="1" stop-color="rgb(13.21106%, 13.21106%, 13.21106%)" offset="0.296875"/><stop stop-opacity="1" stop-color="rgb(13.563538%, 13.563538%, 13.563538%)" offset="0.304688"/><stop stop-opacity="1" stop-color="rgb(13.916016%, 13.916016%, 13.916016%)" offset="0.3125"/><stop stop-opacity="1" stop-color="rgb(14.268494%, 14.268494%, 14.268494%)" offset="0.320312"/><stop stop-opacity="1" stop-color="rgb(14.620972%, 14.620972%, 14.620972%)" offset="0.328125"/><stop stop-opacity="1" stop-color="rgb(14.97345%, 14.97345%, 14.97345%)" offset="0.335938"/><stop stop-opacity="1" stop-color="rgb(15.325928%, 15.325928%, 15.325928%)" offset="0.34375"/><stop stop-opacity="1" stop-color="rgb(15.678406%, 15.678406%, 15.678406%)" offset="0.351562"/><stop stop-opacity="1" stop-color="rgb(16.030884%, 16.030884%, 16.030884%)" offset="0.359375"/><stop stop-opacity="1" stop-color="rgb(16.381836%, 16.381836%, 16.381836%)" offset="0.367188"/><stop stop-opacity="1" stop-color="rgb(16.734314%, 16.734314%, 16.734314%)" offset="0.375"/><stop stop-opacity="1" stop-color="rgb(17.086792%, 17.086792%, 17.086792%)" offset="0.382812"/><stop stop-opacity="1" stop-color="rgb(17.43927%, 17.43927%, 17.43927%)" offset="0.390625"/><stop stop-opacity="1" stop-color="rgb(17.791748%, 17.791748%, 17.791748%)" offset="0.398438"/><stop stop-opacity="1" stop-color="rgb(18.144226%, 18.144226%, 18.144226%)" offset="0.40625"/><stop stop-opacity="1" stop-color="rgb(18.496704%, 18.496704%, 18.496704%)" offset="0.414062"/><stop stop-opacity="1" stop-color="rgb(18.849182%, 18.849182%, 18.849182%)" offset="0.421875"/><stop stop-opacity="1" stop-color="rgb(19.20166%, 19.20166%, 19.20166%)" offset="0.429688"/><stop stop-opacity="1" stop-color="rgb(19.554138%, 19.554138%, 19.554138%)" offset="0.4375"/><stop stop-opacity="1" stop-color="rgb(19.906616%, 19.906616%, 19.906616%)" offset="0.445312"/><stop stop-opacity="1" stop-color="rgb(20.257568%, 20.257568%, 20.257568%)" offset="0.453125"/><stop stop-opacity="1" stop-color="rgb(20.610046%, 20.610046%, 20.610046%)" offset="0.460938"/><stop stop-opacity="1" stop-color="rgb(20.962524%, 20.962524%, 20.962524%)" offset="0.46875"/><stop stop-opacity="1" stop-color="rgb(21.315002%, 21.315002%, 21.315002%)" offset="0.476562"/><stop stop-opacity="1" stop-color="rgb(21.66748%, 21.66748%, 21.66748%)" offset="0.484375"/><stop stop-opacity="1" stop-color="rgb(22.019958%, 22.019958%, 22.019958%)" offset="0.492188"/><stop stop-opacity="1" stop-color="rgb(22.372437%, 22.372437%, 22.372437%)" offset="0.5"/><stop stop-opacity="1" stop-color="rgb(22.724915%, 22.724915%, 22.724915%)" offset="0.507812"/><stop stop-opacity="1" stop-color="rgb(23.077393%, 23.077393%, 23.077393%)" offset="0.515625"/><stop stop-opacity="1" stop-color="rgb(23.429871%, 23.429871%, 23.429871%)" offset="0.523438"/><stop stop-opacity="1" stop-color="rgb(23.782349%, 23.782349%, 23.782349%)" offset="0.53125"/><stop stop-opacity="1" stop-color="rgb(24.134827%, 24.134827%, 24.134827%)" offset="0.539062"/><stop stop-opacity="1" stop-color="rgb(24.485779%, 24.485779%, 24.485779%)" offset="0.546875"/><stop stop-opacity="1" stop-color="rgb(24.838257%, 24.838257%, 24.838257%)" offset="0.554688"/><stop stop-opacity="1" stop-color="rgb(25.190735%, 25.190735%, 25.190735%)" offset="0.5625"/><stop stop-opacity="1" stop-color="rgb(25.543213%, 25.543213%, 25.543213%)" offset="0.570312"/><stop stop-opacity="1" stop-color="rgb(25.895691%, 25.895691%, 25.895691%)" offset="0.578125"/><stop stop-opacity="1" stop-color="rgb(26.248169%, 26.248169%, 26.248169%)" offset="0.585938"/><stop stop-opacity="1" stop-color="rgb(26.600647%, 26.600647%, 26.600647%)" offset="0.59375"/><stop stop-opacity="1" stop-color="rgb(26.953125%, 26.953125%, 26.953125%)" offset="0.601562"/><stop stop-opacity="1" stop-color="rgb(27.305603%, 27.305603%, 27.305603%)" offset="0.609375"/><stop stop-opacity="1" stop-color="rgb(27.658081%, 27.658081%, 27.658081%)" offset="0.617188"/><stop stop-opacity="1" stop-color="rgb(28.010559%, 28.010559%, 28.010559%)" offset="0.625"/><stop stop-opacity="1" stop-color="rgb(28.361511%, 28.361511%, 28.361511%)" offset="0.632812"/><stop stop-opacity="1" stop-color="rgb(28.713989%, 28.713989%, 28.713989%)" offset="0.640625"/><stop stop-opacity="1" stop-color="rgb(29.066467%, 29.066467%, 29.066467%)" offset="0.648438"/><stop stop-opacity="1" stop-color="rgb(29.418945%, 29.418945%, 29.418945%)" offset="0.65625"/><stop stop-opacity="1" stop-color="rgb(29.771423%, 29.771423%, 29.771423%)" offset="0.664062"/><stop stop-opacity="1" stop-color="rgb(30.123901%, 30.123901%, 30.123901%)" offset="0.671875"/><stop stop-opacity="1" stop-color="rgb(30.476379%, 30.476379%, 30.476379%)" offset="0.679688"/><stop stop-opacity="1" stop-color="rgb(30.828857%, 30.828857%, 30.828857%)" offset="0.6875"/><stop stop-opacity="1" stop-color="rgb(31.181335%, 31.181335%, 31.181335%)" offset="0.695312"/><stop stop-opacity="1" stop-color="rgb(31.533813%, 31.533813%, 31.533813%)" offset="0.703125"/><stop stop-opacity="1" stop-color="rgb(31.886292%, 31.886292%, 31.886292%)" offset="0.710938"/><stop stop-opacity="1" stop-color="rgb(32.237244%, 32.237244%, 32.237244%)" offset="0.71875"/><stop stop-opacity="1" stop-color="rgb(32.589722%, 32.589722%, 32.589722%)" offset="0.726562"/><stop stop-opacity="1" stop-color="rgb(32.9422%, 32.9422%, 32.9422%)" offset="0.734375"/><stop stop-opacity="1" stop-color="rgb(33.294678%, 33.294678%, 33.294678%)" offset="0.742188"/><stop stop-opacity="1" stop-color="rgb(33.647156%, 33.647156%, 33.647156%)" offset="0.75"/><stop stop-opacity="1" stop-color="rgb(33.999634%, 33.999634%, 33.999634%)" offset="0.757812"/><stop stop-opacity="1" stop-color="rgb(34.352112%, 34.352112%, 34.352112%)" offset="0.765625"/><stop stop-opacity="1" stop-color="rgb(34.70459%, 34.70459%, 34.70459%)" offset="0.773438"/><stop stop-opacity="1" stop-color="rgb(35.057068%, 35.057068%, 35.057068%)" offset="0.78125"/><stop stop-opacity="1" stop-color="rgb(35.409546%, 35.409546%, 35.409546%)" offset="0.789062"/><stop stop-opacity="1" stop-color="rgb(35.762024%, 35.762024%, 35.762024%)" offset="0.796875"/><stop stop-opacity="1" stop-color="rgb(36.114502%, 36.114502%, 36.114502%)" offset="0.804688"/><stop stop-opacity="1" stop-color="rgb(36.465454%, 36.465454%, 36.465454%)" offset="0.8125"/><stop stop-opacity="1" stop-color="rgb(36.817932%, 36.817932%, 36.817932%)" offset="0.820312"/><stop stop-opacity="1" stop-color="rgb(37.17041%, 37.17041%, 37.17041%)" offset="0.828125"/><stop stop-opacity="1" stop-color="rgb(37.522888%, 37.522888%, 37.522888%)" offset="0.835938"/><stop stop-opacity="1" stop-color="rgb(37.875366%, 37.875366%, 37.875366%)" offset="0.84375"/><stop stop-opacity="1" stop-color="rgb(38.227844%, 38.227844%, 38.227844%)" offset="0.851562"/><stop stop-opacity="1" stop-color="rgb(38.580322%, 38.580322%, 38.580322%)" offset="0.859375"/><stop stop-opacity="1" stop-color="rgb(38.9328%, 38.9328%, 38.9328%)" offset="0.867188"/><stop stop-opacity="1" stop-color="rgb(39.285278%, 39.285278%, 39.285278%)" offset="0.875"/><stop stop-opacity="1" stop-color="rgb(39.637756%, 39.637756%, 39.637756%)" offset="0.882812"/><stop stop-opacity="1" stop-color="rgb(39.990234%, 39.990234%, 39.990234%)" offset="0.890625"/><stop stop-opacity="1" stop-color="rgb(40.341187%, 40.341187%, 40.341187%)" offset="0.898438"/><stop stop-opacity="1" stop-color="rgb(40.693665%, 40.693665%, 40.693665%)" offset="0.90625"/><stop stop-opacity="1" stop-color="rgb(41.046143%, 41.046143%, 41.046143%)" offset="0.914062"/><stop stop-opacity="1" stop-color="rgb(41.398621%, 41.398621%, 41.398621%)" offset="0.921875"/><stop stop-opacity="1" stop-color="rgb(41.751099%, 41.751099%, 41.751099%)" offset="0.929688"/><stop stop-opacity="1" stop-color="rgb(42.103577%, 42.103577%, 42.103577%)" offset="0.9375"/><stop stop-opacity="1" stop-color="rgb(42.456055%, 42.456055%, 42.456055%)" offset="0.945312"/><stop stop-opacity="1" stop-color="rgb(42.808533%, 42.808533%, 42.808533%)" offset="0.953125"/><stop stop-opacity="1" stop-color="rgb(43.161011%, 43.161011%, 43.161011%)" offset="0.960938"/><stop stop-opacity="1" stop-color="rgb(43.513489%, 43.513489%, 43.513489%)" offset="0.96875"/><stop stop-opacity="1" stop-color="rgb(43.865967%, 43.865967%, 43.865967%)" offset="0.976562"/><stop stop-opacity="1" stop-color="rgb(44.216919%, 44.216919%, 44.216919%)" offset="0.984375"/><stop stop-opacity="1" stop-color="rgb(44.569397%, 44.569397%, 44.569397%)" offset="0.992188"/><stop stop-opacity="1" stop-color="rgb(44.921875%, 44.921875%, 44.921875%)" offset="1"/></linearGradient><clipPath id="d7cb38d434"><path d="M 43 16 L 60.949219 16 L 60.949219 27 L 43 27 Z M 43 16 " clip-rule="nonzero"/></clipPath><clipPath id="bafd108481"><path d="M 43 23 L 60.949219 23 L 60.949219 31 L 43 31 Z M 43 23 " clip-rule="nonzero"/></clipPath><clipPath id="c652d824b6"><path d="M 49 23 L 60.949219 23 L 60.949219 36 L 49 36 Z M 49 23 " clip-rule="nonzero"/></clipPath><clipPath id="b618f5554b"><path d="M 49 35 L 60.949219 35 L 60.949219 44 L 49 44 Z M 49 35 " clip-rule="nonzero"/></clipPath><clipPath id="18aac35aaf"><path d="M 56 23 L 60.949219 23 L 60.949219 37 L 56 37 Z M 56 23 " clip-rule="nonzero"/></clipPath><clipPath id="eaf433f5fb"><path d="M 49 37 L 60.949219 37 L 60.949219 51 L 49 51 Z M 49 37 " clip-rule="nonzero"/></clipPath><clipPath id="a78f9150e7"><path d="M 54 50 L 60.949219 50 L 60.949219 55 L 54 55 Z M 54 50 " clip-rule="nonzero"/></clipPath><clipPath id="c9421bb160"><path d="M 54 37 L 60.949219 37 L 60.949219 52 L 54 52 Z M 54 37 " clip-rule="nonzero"/></clipPath><clipPath id="900d932239"><path d="M 37 44 L 50 44 L 50 64.792969 L 37 64.792969 Z M 37 44 " clip-rule="nonzero"/></clipPath><clipPath id="03a54e8248"><path d="M 37 10.054688 L 42 10.054688 L 42 23 L 37 23 Z M 37 10.054688 " clip-rule="nonzero"/></clipPath><clipPath id="69e07ee8af"><path d="M 13.699219 47 L 31 47 L 31 59 L 13.699219 59 Z M 13.699219 47 " clip-rule="nonzero"/></clipPath><clipPath id="b0c1a92c6f"><path d="M 13.699219 44 L 31 44 L 31 52 L 13.699219 52 Z M 13.699219 44 " clip-rule="nonzero"/></clipPath><clipPath id="ef8628c502"><path d="M 13.699219 39 L 26 39 L 26 52 L 13.699219 52 Z M 13.699219 39 " clip-rule="nonzero"/></clipPath><clipPath id="0969800506"><path d="M 13.699219 31 L 25 31 L 25 40 L 13.699219 40 Z M 13.699219 31 " clip-rule="nonzero"/></clipPath><clipPath id="50165aac01"><path d="M 13.699219 37 L 18 37 L 18 52 L 13.699219 52 Z M 13.699219 37 " clip-rule="nonzero"/></clipPath><clipPath id="afe3a276e9"><path d="M 13.699219 24 L 25 24 L 25 38 L 13.699219 38 Z M 13.699219 24 " clip-rule="nonzero"/></clipPath><clipPath id="960c941056"><path d="M 13.699219 20 L 20 20 L 20 25 L 13.699219 25 Z M 13.699219 20 " clip-rule="nonzero"/></clipPath><clipPath id="dc8fd07a44"><path d="M 13.699219 23 L 20 23 L 20 37 L 13.699219 37 Z M 13.699219 23 " clip-rule="nonzero"/></clipPath><clipPath id="2505e6ca55"><path d="M 24 10.054688 L 38 10.054688 L 38 31 L 24 31 Z M 24 10.054688 " clip-rule="nonzero"/></clipPath><clipPath id="9a0c9bd40e"><path d="M 32 51 L 38 51 L 38 64.792969 L 32 64.792969 Z M 32 51 " clip-rule="nonzero"/></clipPath><clipPath id="e9c0e9db7f"><path d="M 13.699219 30.777344 L 61.300781 30.777344 L 61.300781 44.625 L 13.699219 44.625 Z M 13.699219 30.777344 " clip-rule="nonzero"/></clipPath></defs><rect x="-7.5" width="90" fill="#ffffff" y="-7.5" height="89.999996" fill-opacity="1"/><rect x="-7.5" fill="url(#0385e44260)" width="90" y="-7.5" height="89.999996"/><path fill="#eeb01e" d="M 37.824219 23.261719 L 37.332031 22.964844 L 41.589844 12.542969 L 48.277344 16.421875 Z M 37.824219 23.261719 " fill-opacity="1" fill-rule="nonzero"/><path fill="#fbc515" d="M 44.042969 26.867188 L 37.648438 23.164062 L 48.101562 16.304688 L 48.691406 16.660156 Z M 44.042969 26.867188 " fill-opacity="1" fill-rule="nonzero"/><g clip-path="url(#d7cb38d434)"><path fill="#ed8c22" d="M 44.121094 26.90625 L 43.882812 26.769531 L 48.53125 16.5625 L 60.949219 23.773438 Z M 44.121094 26.90625 " fill-opacity="1" fill-rule="nonzero"/></g><g clip-path="url(#bafd108481)"><path fill="#ed5e27" d="M 49.691406 30.136719 L 43.863281 26.769531 L 60.949219 23.773438 Z M 49.691406 30.136719 " fill-opacity="1" fill-rule="nonzero"/></g><g clip-path="url(#c652d824b6)"><path fill="#ef4d24" d="M 57.027344 35.28125 L 49.828125 30.730469 L 49.828125 30.21875 L 49.492188 30.039062 L 60.949219 23.773438 Z M 57.027344 35.28125 " fill-opacity="1" fill-rule="nonzero"/></g><path fill="#ce579e" d="M 49.828125 43.203125 L 49.828125 30.21875 L 57.125 35.125 Z M 49.828125 43.203125 " fill-opacity="1" fill-rule="nonzero"/><g clip-path="url(#b618f5554b)"><path fill="#c01f54" d="M 60.949219 37.410156 L 60.949219 36.699219 L 56.949219 35.023438 L 49.828125 42.925781 L 49.828125 43.65625 Z M 60.949219 37.410156 " fill-opacity="1" fill-rule="nonzero"/></g><g clip-path="url(#18aac35aaf)"><path fill="#f05c67" d="M 60.949219 36.917969 L 60.949219 23.773438 L 56.867188 35.183594 Z M 60.949219 36.917969 " fill-opacity="1" fill-rule="nonzero"/></g><g clip-path="url(#eaf433f5fb)"><path fill="#ea3490" d="M 54.710938 50.730469 L 60.949219 38.257812 L 60.949219 37.191406 L 49.828125 43.4375 L 49.828125 44.621094 Z M 54.710938 50.730469 " fill-opacity="1" fill-rule="nonzero"/></g><path fill="#ce579e" d="M 48.75 58.160156 L 54.710938 50.730469 L 49.828125 44.621094 L 46.984375 59.164062 Z M 48.75 58.160156 " fill-opacity="1" fill-rule="nonzero"/><path fill="#9c226e" d="M 54.945312 54.554688 L 54.710938 50.730469 L 48.296875 58.414062 Z M 54.945312 54.554688 " fill-opacity="1" fill-rule="nonzero"/><g clip-path="url(#a78f9150e7)"><path fill="#ea3490" d="M 60.949219 51.066406 L 54.710938 50.730469 L 54.769531 54.652344 Z M 60.949219 51.066406 " fill-opacity="1" fill-rule="nonzero"/></g><g clip-path="url(#c9421bb160)"><path fill="#c21a7e" d="M 60.949219 51.066406 L 60.949219 37.84375 L 54.710938 50.730469 Z M 60.949219 51.066406 " fill-opacity="1" fill-rule="nonzero"/></g><g clip-path="url(#900d932239)"><path fill="#c21a7e" d="M 47.199219 59.046875 L 49.828125 44.621094 L 37.332031 64.78125 Z M 47.199219 59.046875 " fill-opacity="1" fill-rule="nonzero"/><path fill="#ea3490" d="M 49.828125 44.621094 L 37.332031 51.875 L 37.332031 64.78125 Z M 49.828125 44.621094 " fill-opacity="1" fill-rule="nonzero"/></g><g clip-path="url(#03a54e8248)"><path fill="#fbeb6f" d="M 41.746094 12.640625 L 41.726562 12.699219 L 37.332031 22.964844 L 37.332031 10.058594 Z M 41.746094 12.640625 " fill-opacity="1" fill-rule="nonzero"/></g><path fill="#564597" d="M 36.824219 51.578125 L 37.3125 51.875 L 33.058594 62.296875 L 26.371094 58.414062 Z M 36.824219 51.578125 " fill-opacity="1" fill-rule="nonzero"/><path fill="#425099" d="M 30.605469 47.972656 L 37 51.675781 L 26.546875 58.535156 L 25.957031 58.179688 Z M 30.605469 47.972656 " fill-opacity="1" fill-rule="nonzero"/><g clip-path="url(#69e07ee8af)"><path fill="#2a3680" d="M 30.546875 47.933594 L 30.761719 48.070312 L 26.113281 58.277344 L 13.699219 51.066406 Z M 30.546875 47.933594 " fill-opacity="1" fill-rule="nonzero"/></g><g clip-path="url(#b0c1a92c6f)"><path fill="#4077b8" d="M 24.976562 44.699219 L 30.78125 48.070312 L 13.699219 51.066406 Z M 24.976562 44.699219 " fill-opacity="1" fill-rule="nonzero"/></g><g clip-path="url(#ef8628c502)"><path fill="#208cba" d="M 17.640625 39.558594 L 24.820312 44.109375 L 24.820312 44.621094 L 25.152344 44.820312 L 13.699219 51.066406 Z M 17.640625 39.558594 " fill-opacity="1" fill-rule="nonzero"/></g><path fill="#5fb2d1" d="M 24.839844 31.636719 L 24.820312 44.621094 L 17.542969 39.714844 Z M 24.839844 31.636719 " fill-opacity="1" fill-rule="nonzero"/><g clip-path="url(#0969800506)"><path fill="#48c3d2" d="M 13.699219 37.429688 L 13.699219 38.117188 L 17.699219 39.8125 L 24.839844 31.910156 L 24.839844 31.183594 Z M 13.699219 37.429688 " fill-opacity="1" fill-rule="nonzero"/></g><g clip-path="url(#50165aac01)"><path fill="#07b9e4" d="M 13.699219 37.921875 L 13.699219 51.066406 L 17.796875 39.65625 Z M 13.699219 37.921875 " fill-opacity="1" fill-rule="nonzero"/></g><g clip-path="url(#afe3a276e9)"><path fill="#008c5b" d="M 19.9375 24.109375 L 13.699219 36.582031 L 13.699219 37.644531 L 24.839844 31.398438 L 24.839844 30.21875 Z M 19.9375 24.109375 " fill-opacity="1" fill-rule="nonzero"/></g><path fill="#17b37b" d="M 25.9375 16.679688 L 19.9375 24.109375 L 24.839844 30.21875 L 27.683594 15.675781 Z M 25.9375 16.679688 " fill-opacity="1" fill-rule="nonzero"/><path fill="#68c29b" d="M 19.71875 20.285156 L 19.9375 24.109375 L 26.390625 16.421875 Z M 19.71875 20.285156 " fill-opacity="1" fill-rule="nonzero"/><g clip-path="url(#960c941056)"><path fill="#a3d6bc" d="M 13.71875 23.753906 L 19.9375 24.109375 L 19.898438 20.167969 Z M 13.71875 23.753906 " fill-opacity="1" fill-rule="nonzero"/></g><g clip-path="url(#dc8fd07a44)"><path fill="#26654b" d="M 13.71875 23.753906 L 13.699219 36.996094 L 19.9375 24.109375 Z M 13.71875 23.753906 " fill-opacity="1" fill-rule="nonzero"/></g><g clip-path="url(#2505e6ca55)"><path fill="#8abb3f" d="M 27.488281 15.792969 L 24.839844 30.21875 L 37.332031 10.078125 Z M 27.488281 15.792969 " fill-opacity="1" fill-rule="nonzero"/><path fill="#b8d232" d="M 24.839844 30.21875 L 37.332031 22.984375 L 37.332031 10.078125 Z M 24.839844 30.21875 " fill-opacity="1" fill-rule="nonzero"/></g><g clip-path="url(#9a0c9bd40e)"><path fill="#9c226e" d="M 32.902344 62.21875 L 32.921875 62.140625 L 37.3125 51.875 L 37.3125 64.78125 Z M 32.902344 62.21875 " fill-opacity="1" fill-rule="nonzero"/></g><g clip-path="url(#e9c0e9db7f)"><path fill="#000000" d="M 13.699219 30.777344 L 61.296875 30.777344 L 61.296875 44.625 L 13.699219 44.625 Z M 13.699219 30.777344 " fill-opacity="1" fill-rule="nonzero"/></g><g fill="#ffffff" fill-opacity="1"><g transform="translate(23.243652, 37.909585)"><g><path d="M 5.453125 -2.625 C 5.453125 -1.738281 5.234375 -1.066406 4.796875 -0.609375 C 4.367188 -0.148438 3.738281 0.078125 2.90625 0.078125 C 2.09375 0.078125 1.46875 -0.148438 1.03125 -0.609375 C 0.59375 -1.078125 0.375 -1.75 0.375 -2.625 C 0.375 -3.488281 0.585938 -4.148438 1.015625 -4.609375 C 1.453125 -5.066406 2.085938 -5.296875 2.921875 -5.296875 C 3.742188 -5.296875 4.367188 -5.066406 4.796875 -4.609375 C 5.234375 -4.160156 5.453125 -3.5 5.453125 -2.625 Z M 1.859375 -2.625 C 1.859375 -1.613281 2.207031 -1.109375 2.90625 -1.109375 C 3.269531 -1.109375 3.535156 -1.226562 3.703125 -1.46875 C 3.878906 -1.71875 3.96875 -2.101562 3.96875 -2.625 C 3.96875 -3.144531 3.878906 -3.523438 3.703125 -3.765625 C 3.523438 -4.015625 3.265625 -4.140625 2.921875 -4.140625 C 2.210938 -4.140625 1.859375 -3.632812 1.859375 -2.625 Z M 1.859375 -2.625 "/></g></g></g><g fill="#ffffff" fill-opacity="1"><g transform="translate(29.88228, 37.909585)"><g><path d="M 2.890625 -4.140625 C 2.554688 -4.140625 2.296875 -4 2.109375 -3.71875 C 1.921875 -3.445312 1.828125 -3.070312 1.828125 -2.59375 C 1.828125 -1.582031 2.207031 -1.078125 2.96875 -1.078125 C 3.195312 -1.078125 3.421875 -1.109375 3.640625 -1.171875 C 3.859375 -1.242188 4.078125 -1.320312 4.296875 -1.40625 L 4.296875 -0.21875 C 3.859375 -0.0195312 3.363281 0.078125 2.8125 0.078125 C 2.019531 0.078125 1.414062 -0.148438 1 -0.609375 C 0.582031 -1.066406 0.375 -1.726562 0.375 -2.59375 C 0.375 -3.132812 0.472656 -3.609375 0.671875 -4.015625 C 0.878906 -4.429688 1.171875 -4.75 1.546875 -4.96875 C 1.929688 -5.1875 2.382812 -5.296875 2.90625 -5.296875 C 3.46875 -5.296875 4.003906 -5.171875 4.515625 -4.921875 L 4.09375 -3.8125 C 3.894531 -3.90625 3.695312 -3.984375 3.5 -4.046875 C 3.3125 -4.109375 3.109375 -4.140625 2.890625 -4.140625 Z M 2.890625 -4.140625 "/></g></g></g><g fill="#ffffff" fill-opacity="1"><g transform="translate(35.439129, 37.909585)"><g><path d="M 3.765625 0 L 3.515625 -0.984375 L 1.8125 -0.984375 L 1.546875 0 L 0 0 L 1.703125 -5.234375 L 3.578125 -5.234375 L 5.3125 0 Z M 3.21875 -2.140625 L 2.984375 -2.984375 C 2.929688 -3.179688 2.867188 -3.429688 2.796875 -3.734375 C 2.722656 -4.035156 2.675781 -4.25 2.65625 -4.375 C 2.632812 -4.257812 2.59375 -4.0625 2.53125 -3.78125 C 2.46875 -3.5 2.328125 -2.953125 2.109375 -2.140625 Z M 3.21875 -2.140625 "/></g></g></g><g fill="#ffffff" fill-opacity="1"><g transform="translate(41.560075, 37.909585)"><g><path d="M 5 -2.71875 C 5 -1.84375 4.757812 -1.171875 4.28125 -0.703125 C 3.800781 -0.234375 3.125 0 2.25 0 L 0.5625 0 L 0.5625 -5.21875 L 2.375 -5.21875 C 3.207031 -5.21875 3.851562 -5.003906 4.3125 -4.578125 C 4.769531 -4.148438 5 -3.53125 5 -2.71875 Z M 3.53125 -2.671875 C 3.53125 -3.148438 3.4375 -3.503906 3.25 -3.734375 C 3.0625 -3.960938 2.773438 -4.078125 2.390625 -4.078125 L 1.96875 -4.078125 L 1.96875 -1.15625 L 2.28125 -1.15625 C 2.71875 -1.15625 3.035156 -1.28125 3.234375 -1.53125 C 3.429688 -1.78125 3.53125 -2.160156 3.53125 -2.671875 Z M 3.53125 -2.671875 "/></g></g></g><g fill="#ffffff" fill-opacity="1"><g transform="translate(47.738144, 37.909585)"><g><path d="M 3.65625 0 L 0.5625 0 L 0.5625 -5.21875 L 3.65625 -5.21875 L 3.65625 -4.09375 L 1.96875 -4.09375 L 1.96875 -3.265625 L 3.53125 -3.265625 L 3.53125 -2.140625 L 1.96875 -2.140625 L 1.96875 -1.15625 L 3.65625 -1.15625 Z M 3.65625 0 "/></g></g></g><path stroke-linecap="round" transform="matrix(0.749998, 0.00158829, -0.00158829, 0.749998, 13.699441, 38.691939)" fill="none" stroke-linejoin="miter" d="M 0.50076 0.49823 L 62.969666 0.501355 " stroke="#ed8c22" stroke-width="1" stroke-opacity="1" stroke-miterlimit="4"/><g fill="#ffffff" fill-opacity="1"><g transform="translate(22.853746, 43.421792)"><g><path d="M 0.703125 0 L 0.375 0 L 0.375 -2.75 L 1.90625 -2.75 L 1.90625 -2.453125 L 0.703125 -2.453125 L 0.703125 -1.453125 L 1.828125 -1.453125 L 1.828125 -1.171875 L 0.703125 -1.171875 Z M 0.703125 0 "/></g></g></g><g fill="#ffffff" fill-opacity="1"><g transform="translate(27.922678, 43.421792)"><g><path d="M 2.453125 -2.75 L 2.453125 -0.96875 C 2.453125 -0.65625 2.351562 -0.410156 2.15625 -0.234375 C 1.96875 -0.0546875 1.710938 0.03125 1.390625 0.03125 C 1.054688 0.03125 0.796875 -0.0546875 0.609375 -0.234375 C 0.429688 -0.410156 0.34375 -0.65625 0.34375 -0.96875 L 0.34375 -2.75 L 0.671875 -2.75 L 0.671875 -0.953125 C 0.671875 -0.722656 0.734375 -0.546875 0.859375 -0.421875 C 0.984375 -0.296875 1.164062 -0.234375 1.40625 -0.234375 C 1.632812 -0.234375 1.8125 -0.296875 1.9375 -0.421875 C 2.0625 -0.546875 2.125 -0.722656 2.125 -0.953125 L 2.125 -2.75 Z M 2.453125 -2.75 "/></g></g></g><g fill="#ffffff" fill-opacity="1"><g transform="translate(33.807407, 43.421792)"><g><path d="M 1.921875 -0.734375 C 1.921875 -0.492188 1.832031 -0.304688 1.65625 -0.171875 C 1.488281 -0.0351562 1.253906 0.03125 0.953125 0.03125 C 0.628906 0.03125 0.378906 -0.0078125 0.203125 -0.09375 L 0.203125 -0.390625 C 0.316406 -0.347656 0.4375 -0.3125 0.5625 -0.28125 C 0.695312 -0.25 0.832031 -0.234375 0.96875 -0.234375 C 1.175781 -0.234375 1.332031 -0.273438 1.4375 -0.359375 C 1.550781 -0.441406 1.609375 -0.554688 1.609375 -0.703125 C 1.609375 -0.796875 1.585938 -0.875 1.546875 -0.9375 C 1.503906 -1 1.4375 -1.050781 1.34375 -1.09375 C 1.257812 -1.144531 1.128906 -1.207031 0.953125 -1.28125 C 0.691406 -1.363281 0.503906 -1.46875 0.390625 -1.59375 C 0.285156 -1.71875 0.234375 -1.882812 0.234375 -2.09375 C 0.234375 -2.300781 0.3125 -2.46875 0.46875 -2.59375 C 0.632812 -2.71875 0.847656 -2.78125 1.109375 -2.78125 C 1.378906 -2.78125 1.628906 -2.734375 1.859375 -2.640625 L 1.75 -2.359375 C 1.53125 -2.453125 1.3125 -2.5 1.09375 -2.5 C 0.925781 -2.5 0.796875 -2.460938 0.703125 -2.390625 C 0.609375 -2.316406 0.5625 -2.21875 0.5625 -2.09375 C 0.5625 -1.988281 0.578125 -1.90625 0.609375 -1.84375 C 0.640625 -1.789062 0.695312 -1.738281 0.78125 -1.6875 C 0.863281 -1.632812 0.992188 -1.578125 1.171875 -1.515625 C 1.453125 -1.410156 1.644531 -1.300781 1.75 -1.1875 C 1.863281 -1.070312 1.921875 -0.921875 1.921875 -0.734375 Z M 1.921875 -0.734375 "/></g></g></g><g fill="#ffffff" fill-opacity="1"><g transform="translate(39.002281, 43.421792)"><g><path d="M 0.375 0 L 0.375 -2.75 L 0.703125 -2.75 L 0.703125 0 Z M 0.375 0 "/></g></g></g><g fill="#ffffff" fill-opacity="1"><g transform="translate(43.157671, 43.421792)"><g><path d="M 2.765625 -1.375 C 2.765625 -0.9375 2.648438 -0.59375 2.421875 -0.34375 C 2.203125 -0.09375 1.894531 0.03125 1.5 0.03125 C 1.09375 0.03125 0.78125 -0.0859375 0.5625 -0.328125 C 0.34375 -0.578125 0.234375 -0.925781 0.234375 -1.375 C 0.234375 -1.820312 0.34375 -2.164062 0.5625 -2.40625 C 0.78125 -2.65625 1.09375 -2.78125 1.5 -2.78125 C 1.894531 -2.78125 2.203125 -2.65625 2.421875 -2.40625 C 2.648438 -2.15625 2.765625 -1.8125 2.765625 -1.375 Z M 0.578125 -1.375 C 0.578125 -1 0.65625 -0.710938 0.8125 -0.515625 C 0.96875 -0.328125 1.195312 -0.234375 1.5 -0.234375 C 1.800781 -0.234375 2.03125 -0.328125 2.1875 -0.515625 C 2.34375 -0.710938 2.421875 -1 2.421875 -1.375 C 2.421875 -1.738281 2.34375 -2.015625 2.1875 -2.203125 C 2.03125 -2.398438 1.800781 -2.5 1.5 -2.5 C 1.195312 -2.5 0.96875 -2.398438 0.8125 -2.203125 C 0.65625 -2.015625 0.578125 -1.738281 0.578125 -1.375 Z M 0.578125 -1.375 "/></g></g></g><g fill="#ffffff" fill-opacity="1"><g transform="translate(49.23789, 43.421792)"><g><path d="M 2.515625 0 L 2.15625 0 L 0.65625 -2.296875 L 0.640625 -2.296875 C 0.660156 -2.023438 0.671875 -1.78125 0.671875 -1.5625 L 0.671875 0 L 0.375 0 L 0.375 -2.75 L 0.734375 -2.75 L 2.234375 -0.453125 L 2.25 -0.453125 C 2.25 -0.484375 2.242188 -0.585938 2.234375 -0.765625 C 2.222656 -0.953125 2.21875 -1.085938 2.21875 -1.171875 L 2.21875 -2.75 L 2.515625 -2.75 Z M 2.515625 0 "/></g></g></g></svg>